<?xml version="1.0" standalone="no"?>
<!DOCTYPE svg PUBLIC "-//W3C//DTD SVG 20010904//EN"
 "http://www.w3.org/TR/2001/REC-SVG-20010904/DTD/svg10.dtd">
<svg version="1.0" xmlns="http://www.w3.org/2000/svg"
 width="884.000000pt" height="803.000000pt" viewBox="0 0 884.000000 803.000000"
 preserveAspectRatio="xMidYMid meet">

<g transform="translate(0.000000,800.000000) scale(0.100000,-0.100000)"
fill="#142A80" stroke="none">
<path d="M0 7524 c0 -334 3 -503 10 -499 14 9 14 1005 0 1005 -7 0 -10 -175
-10 -506z"/>
<path d="M1315 7519 c-127 -18 -289 -81 -402 -156 -73 -48 -192 -160 -249
-235 -95 -123 -172 -307 -193 -461 -15 -110 -15 -4694 0 -4804 21 -154 98
-338 193 -461 56 -74 176 -187 246 -233 121 -80 277 -140 413 -158 110 -15
5244 -15 5354 0 154 21 338 98 461 193 74 56 187 176 233 246 80 121 140 277
158 413 15 110 15 4694 0 4804 -18 136 -78 292 -158 413 -46 70 -159 190 -233
246 -123 95 -307 172 -461 193 -96 13 -5271 13 -5362 0z m1820 -2307 c234 -45
363 -101 471 -207 114 -112 161 -232 171 -431 7 -130 -10 -223 -57 -323 -39
-82 -143 -186 -227 -228 l-62 -31 56 -21 c79 -30 184 -103 238 -164 54 -61
118 -186 142 -277 27 -102 25 -331 -5 -435 -35 -120 -76 -190 -167 -281 -66
-68 -96 -89 -175 -127 -52 -25 -131 -56 -174 -68 -189 -51 -196 -51 -948 -56
l-708 -4 0 1341 0 1341 668 -4 c624 -4 674 -6 777 -25z m3495 -232 l0 -260
-440 0 -440 0 0 -1080 0 -1080 -345 0 -345 0 0 1080 0 1080 -445 0 -445 0 0
260 0 260 1230 0 1230 0 0 -260z"/>
<path d="M2380 4484 l0 -286 248 4 247 3 66 31 c106 51 144 117 144 254 0 76
-3 91 -31 140 -37 66 -104 111 -190 129 -32 6 -150 11 -271 11 l-213 0 0 -286z"/>
<path d="M2380 3381 l0 -351 228 0 c252 0 330 9 415 47 134 60 202 219 167
388 -17 82 -41 125 -96 174 -84 73 -135 84 -446 89 l-268 4 0 -351z"/>
<path d="M1 1033 c-1 -683 2 -1033 9 -1033 12 0 13 1965 1 2025 -5 22 -9 -419
-10 -992z"/>
</g>
</svg>
